<svg width="42" height="40" viewBox="0 0 42 40" fill="none" xmlns="http://www.w3.org/2000/svg">
<path d="M16.8459 11.3645L17.7203 7.61804L14.813 5.09927L18.6426 4.76785L20.1425 1.23438L21.6423 4.76714L25.4712 5.09856L22.5646 7.61733L23.439 11.3638L20.1425 9.37525L16.8459 11.3645Z" fill="white"/>
<path d="M3.2673 16.302L4.14168 12.5555L1.23438 10.0368L5.06401 9.70535L6.56385 6.17188L8.06369 9.70464L11.8926 10.0361L8.98602 12.5548L9.86039 16.3013L6.56385 14.3128L3.2673 16.302Z" fill="white"/>
<g clip-path="url(#clip0_3238_5248)">
<path d="M31.6589 16.302L32.5333 12.5555L29.626 10.0368L33.4556 9.70535L34.9555 6.17188L36.4553 9.70464L40.2842 10.0361L37.3776 12.5548L38.252 16.3013L34.9555 14.3128L31.6589 16.302Z" fill="white"/>
</g>
<g clip-path="url(#clip1_3238_5248)">
<path d="M31.3668 24.6269L36.8503 22.0707L38.4768 21.2342L20.3069 13.5667L1.39355 22.1172L20.3069 30.6677L34.6197 23.1105L19.2846 23.186L31.3668 24.6269Z" fill="white"/>
<path d="M20.3532 31.9236L7.75982 26.2077L6.64453 25.6966V34.4794L6.87688 34.6653C11.2451 37.8253 15.6597 39.3588 20.0279 39.3588C24.3961 39.3588 28.7643 37.7788 33.1325 34.6188L33.3649 34.433V25.1389L32.2496 25.6966L20.3532 31.9236Z" fill="white"/>
</g>
<defs>
<clipPath id="clip0_3238_5248">
<rect width="12.3419" height="12.3419" fill="white" transform="translate(29.0034 4.9375)"/>
</clipPath>
<clipPath id="clip1_3238_5248">
<rect width="37.6409" height="26.0233" fill="white" transform="translate(0.928711 13.4768)"/>
</clipPath>
</defs>
</svg>
