<svg width="50" height="51" viewBox="0 0 50 51" fill="none" xmlns="http://www.w3.org/2000/svg">
<path d="M20.0776 15.8516C23.8901 15.8516 26.9995 12.7578 26.9995 8.96094C26.9995 5.16406 23.8901 2.0625 20.0776 2.0625C16.2651 2.0625 13.1636 5.15625 13.1636 8.96094C13.1636 12.7656 16.2651 15.8516 20.0776 15.8516Z" fill="white"/>
<path d="M21.8828 25.0898C21.9141 24.9648 21.9453 24.8086 21.9609 24.6992C22.125 23.8242 22.375 22.5039 23.5469 21.6367C24.1797 21.168 24.9141 20.9492 25.8047 20.9492H25.9297C26.3047 20.957 26.6562 20.9961 26.9453 21.0352C27.0781 21.0508 27.2031 21.0664 27.3203 21.082C27.4141 20.9961 27.5156 20.9023 27.5859 20.8398C27.6719 20.7617 27.7578 20.6758 27.8516 20.582C25.8203 18.5273 23.0469 17.3555 20.0781 17.3555C14.0313 17.3555 9.10938 22.2773 9.10938 28.332V29.1211C9.10938 29.5508 9.46094 29.9023 9.89062 29.9023H19.1484C19.0156 29.4336 18.9453 28.9102 19.0156 28.3398C19.0391 28.1602 19.0859 27.9648 19.1484 27.7695C19.6016 26.3633 20.7734 25.707 21.5547 25.2773C21.6484 25.2227 21.7812 25.1523 21.8828 25.0898Z" fill="white"/>
<path d="M40.3831 32.623C40.2034 32.2324 40.0159 31.8262 40.0159 31.5527C40.0159 31.2793 40.2034 30.873 40.3831 30.4824C40.7034 29.8027 41.055 29.0371 40.805 28.248C40.5472 27.4277 39.7894 27.0137 39.1253 26.6465C38.7659 26.4434 38.3909 26.2324 38.2503 26.0371C38.1019 25.834 38.0159 25.4043 37.9378 24.9824C37.805 24.2402 37.6488 23.3965 36.9613 22.8965C36.2816 22.3887 35.4378 22.498 34.6956 22.5918C34.2738 22.6387 33.8441 22.6934 33.6019 22.6152C33.3831 22.5371 33.0628 22.2402 32.7816 21.9668C32.2269 21.4355 31.5941 20.8418 30.7191 20.8418C29.8441 20.8418 29.2191 21.4355 28.6644 21.9668C28.3831 22.2402 28.0628 22.5371 27.8441 22.6152C27.6019 22.6934 27.1644 22.6387 26.7503 22.5918C26.0003 22.498 25.1566 22.3887 24.4769 22.8965C23.7972 23.3965 23.6409 24.2402 23.5003 24.9824C23.4222 25.4043 23.3441 25.834 23.1956 26.0371C23.055 26.2324 22.68 26.4434 22.3128 26.6465C21.6487 27.0137 20.8987 27.4277 20.6331 28.248C20.3831 29.0371 20.7425 29.8027 21.055 30.4824C21.2347 30.873 21.43 31.2793 21.43 31.5527C21.43 31.8262 21.2347 32.2324 21.055 32.623C20.7425 33.3027 20.3831 34.0684 20.6331 34.8574C20.8987 35.6777 21.6487 36.0918 22.3128 36.459C22.68 36.6621 23.055 36.8652 23.1956 37.0684C23.3441 37.2715 23.4222 37.7012 23.5003 38.1152C23.6409 38.8652 23.7972 39.709 24.4769 40.209C24.8597 40.4902 25.2894 40.584 25.7269 40.5918V48.1543C25.7269 48.4277 25.8675 48.6777 26.1019 48.8184C26.3284 48.959 26.6175 48.9746 26.8597 48.8496L30.7191 46.9043L34.5784 48.8496C34.6878 48.9043 34.8128 48.9355 34.93 48.9355C35.0784 48.9355 35.2191 48.8965 35.3441 48.8184C35.5706 48.6777 35.7112 48.4277 35.7112 48.1543V40.5918C36.1487 40.584 36.5784 40.4902 36.9613 40.209C37.6488 39.709 37.805 38.8652 37.9378 38.1152C38.0159 37.7012 38.1019 37.2715 38.2503 37.0684C38.3909 36.8652 38.7659 36.6621 39.1253 36.459C39.7894 36.0918 40.5472 35.6777 40.805 34.8574C41.0628 34.0684 40.7034 33.3027 40.3831 32.623ZM35.0863 31.2402L33.4691 32.8418L33.8441 35.0996C33.8988 35.3965 33.7737 35.6934 33.5316 35.8652C33.3987 35.9668 33.2347 36.0137 33.0784 36.0137C32.9534 36.0137 32.8284 35.9824 32.7112 35.9199L30.7191 34.8574L28.7347 35.9199C28.4691 36.0605 28.1488 36.0371 27.9066 35.8652C27.6644 35.6934 27.5472 35.3965 27.5941 35.0996L27.9769 32.8418L26.3597 31.2402C26.1488 31.0293 26.0706 30.7246 26.1644 30.4434C26.2581 30.1543 26.5003 29.9512 26.7972 29.9121L29.0238 29.584L30.0159 27.5293C30.2816 26.9902 31.1644 26.9902 31.4222 27.5293L32.4222 29.584L34.6487 29.9121C34.9378 29.9512 35.1878 30.1543 35.2738 30.4434C35.3675 30.7246 35.2972 31.0293 35.0863 31.2402Z" fill="white"/>
</svg>
