<svg width="50" height="50" viewBox="0 0 50 50" fill="none" xmlns="http://www.w3.org/2000/svg">
<rect width="50" height="50" rx="25" fill="#F7E4E4"/>
<g clip-path="url(#clip0_4014_1024)">
<path d="M24.2395 20.6407C24.6189 20.6407 24.9261 20.3333 24.9261 19.9542C24.9261 19.575 24.6189 19.2676 24.2395 19.2676C21.2061 19.2676 18.7471 21.7266 18.7471 24.7602C18.7471 27.7936 21.2061 30.2526 24.2395 30.2526C27.2731 30.2526 29.7321 27.7936 29.7321 24.7602C29.7321 24.3809 29.4247 24.0736 29.0456 24.0736C28.6664 24.0736 28.359 24.3809 28.359 24.7602C28.359 27.0353 26.5148 28.8797 24.2395 28.8797C21.9644 28.8797 20.12 27.0353 20.12 24.7602C20.12 22.4849 21.9644 20.6407 24.2395 20.6407Z" fill="#DD251E"/>
<path d="M37.3393 20.6827C37.2201 20.3225 36.8315 20.1272 36.471 20.2464C36.119 20.3629 35.923 20.7376 36.028 21.0932C38.0812 27.6316 34.4454 34.5964 27.907 36.6497C21.3688 38.7029 14.4039 35.0671 12.3507 28.5287C10.2973 21.9903 13.9333 15.0254 20.4715 12.9722C22.8919 12.2122 25.4868 12.2122 27.907 12.9722C28.2703 13.0818 28.6537 12.8761 28.7632 12.5127C28.8711 12.1548 28.6732 11.7765 28.3177 11.6609C21.0576 9.38308 13.3254 13.422 11.0476 20.6823C8.76978 27.9424 12.8089 35.6746 20.069 37.9524C27.3293 40.2302 35.0613 36.1912 37.3391 28.9309C38.1815 26.246 38.1815 23.3677 37.3393 20.6827Z" fill="#DD251E"/>
<path d="M25.5474 15.9303C25.551 15.5394 25.2507 15.2126 24.8608 15.1833C24.6558 15.1659 24.4505 15.1484 24.2401 15.1484C18.9314 15.1484 14.6279 19.4519 14.6279 24.7606C14.6279 30.069 18.9314 34.3725 24.2401 34.3725C29.5485 34.3725 33.852 30.069 33.852 24.7606C33.852 24.5122 33.8368 24.2641 33.8063 24.0176C33.7515 23.6408 33.4015 23.3798 33.0247 23.4347C32.6479 23.4894 32.3869 23.8395 32.4416 24.2163C32.4437 24.2306 32.4462 24.2447 32.4492 24.259C32.4641 24.4254 32.4788 24.5902 32.4788 24.7601C32.479 29.3105 28.7904 32.9991 24.2403 32.9995C19.6899 32.9997 16.0013 29.3109 16.0011 24.7608C16.0009 20.2106 19.6893 16.5218 24.2396 16.5216H24.2398C24.4102 16.5216 24.5752 16.5363 24.7412 16.551L24.8699 16.5618C25.2286 16.5771 25.5318 16.2987 25.547 15.9399C25.5472 15.9366 25.5472 15.9334 25.5474 15.9303Z" fill="#DD251E"/>
<path d="M28.3593 17.2082V19.6702L23.7545 24.275C23.4818 24.5385 23.4742 24.9732 23.7377 25.2459C24.0012 25.5187 24.4358 25.5262 24.7086 25.2627C24.7143 25.2573 24.7199 25.2516 24.7254 25.2459L29.3302 20.6411H31.7922C31.9743 20.6411 32.1489 20.5688 32.2778 20.4399L36.3971 16.3204C36.6652 16.0523 36.6652 15.6176 36.3971 15.3495C36.2684 15.2208 36.0938 15.1485 35.9117 15.1485H33.852V13.0887C33.852 12.7096 33.5445 12.4021 33.1652 12.4023C32.9833 12.4023 32.8088 12.4747 32.6801 12.6034L28.5606 16.7229C28.4317 16.8516 28.3593 17.0261 28.3593 17.2082ZM29.7325 17.4925L32.4788 14.7462V15.835C32.4788 16.2142 32.7863 16.5216 33.1654 16.5216H34.2543L31.5079 19.2679H29.7325V17.4925Z" fill="#DD251E"/>
</g>
<defs>
<clipPath id="clip0_4014_1024">
<rect width="27.5625" height="27.5625" fill="white" transform="translate(10.4121 11.0254)"/>
</clipPath>
</defs>
</svg>
