<svg width="26" height="32" viewBox="0 0 26 32" fill="none" xmlns="http://www.w3.org/2000/svg">
<path d="M9.23438 29.1719H16.7638V31.9954H9.23438V29.1719Z" fill="white"/>
<path d="M12.999 0C6.25243 0 0.763672 5.48875 0.763672 12.2353C0.763672 16.9284 3.4139 21.0409 7.35191 23.0916V27.2941H11.1166V16.2222L9.58199 13.1531C8.70877 13.2605 7.85117 12.963 7.23771 12.3495C6.13691 11.2486 6.13691 9.45725 7.23771 8.35633C8.33864 7.25547 10.1299 7.25547 11.2308 8.35633C12.3195 9.44508 12.3308 11.2086 11.2662 12.3122L12.999 15.7778V18.4337L15.1561 16.2766C14.6639 15.2482 14.8228 13.9478 15.7084 13.0622C16.8092 11.9613 18.6005 11.9614 19.7014 13.0622C20.8048 14.1656 20.8051 15.9517 19.7014 17.0553C18.8326 17.9241 17.5372 18.1061 16.4883 17.6063L12.999 21.0957V27.2941H18.646V23.0916C22.5837 21.0411 25.2343 16.9288 25.2343 12.2353C25.2343 5.48875 19.7455 0 12.999 0Z" fill="white"/>
<path d="M18.3705 15.7234C18.7384 15.3555 18.7384 14.7602 18.3705 14.3924C18.0037 14.0255 17.4066 14.0254 17.0395 14.3924C16.6717 14.7602 16.6717 15.3556 17.0395 15.7234V15.7234C17.4074 16.0913 18.0027 16.0913 18.3705 15.7234Z" fill="white"/>
<path d="M8.56817 9.68926C8.20124 10.0563 8.20124 10.6533 8.56817 11.0203C8.93516 11.3873 9.53225 11.3873 9.89924 11.0203C10.2662 10.6533 10.2662 10.0563 9.89924 9.68926C9.53225 9.32233 8.93516 9.32233 8.56817 9.68926Z" fill="white"/>
</svg>
