<svg width="50" height="50" viewBox="0 0 50 50" fill="none" xmlns="http://www.w3.org/2000/svg">
<rect width="50" height="50" rx="25" fill="#F7E4E4"/>
<g clip-path="url(#clip0_4014_1032)">
<path d="M24.5002 11.3C24.8039 11.3 25.0502 11.0537 25.0502 10.75V8.54999C25.0502 8.24626 24.8039 8 24.5002 8C24.1965 8 23.9502 8.24626 23.9502 8.54999V10.75C23.9502 11.0537 24.1964 11.3 24.5002 11.3Z" fill="#B6211A"/>
<path d="M17.6987 10.5197L18.7987 12.4243C18.9488 12.6884 19.2846 12.7807 19.5487 12.6306C19.8127 12.4804 19.905 12.1447 19.7549 11.8806C19.7537 11.8785 19.7525 11.8764 19.7513 11.8743L18.6513 9.96964C18.5011 9.70558 18.1653 9.61325 17.9013 9.76339C17.6372 9.91354 17.5449 10.2493 17.695 10.5134C17.6962 10.5155 17.6974 10.5176 17.6987 10.5197Z" fill="#B6211A"/>
<path d="M13.2641 15.3478C13.2662 15.349 13.2683 15.3502 13.2705 15.3514L15.1751 16.4514C15.4372 16.605 15.7741 16.5171 15.9277 16.2551C16.0813 15.993 15.9934 15.6561 15.7313 15.5025C15.7293 15.5012 15.7271 15.5001 15.725 15.4988L13.8204 14.3988C13.5583 14.2452 13.2214 14.3331 13.0678 14.5952C12.9142 14.8572 13.0021 15.1942 13.2641 15.3478Z" fill="#B6211A"/>
<path d="M14.6007 21.1994C14.6007 20.8957 14.3545 20.6494 14.0508 20.6494H11.8508C11.547 20.6494 11.3008 20.8957 11.3008 21.1994C11.3008 21.5031 11.547 21.7494 11.8508 21.7494H14.0508C14.3545 21.7494 14.6007 21.5031 14.6007 21.1994Z" fill="#B6211A"/>
<path d="M15.1815 25.945C15.1794 25.9462 15.1773 25.9474 15.1751 25.9487L13.2705 27.0487C13.0064 27.1988 12.914 27.5345 13.0641 27.7986C13.2142 28.0627 13.55 28.1551 13.814 28.005C13.8162 28.0037 13.8183 28.0025 13.8204 28.0013L15.7251 26.9013C15.9891 26.7512 16.0815 26.4154 15.9314 26.1514C15.7814 25.8873 15.4456 25.7949 15.1815 25.945Z" fill="#B6211A"/>
<path d="M35.7364 27.0524C35.7343 27.0512 35.7321 27.0499 35.73 27.0487L33.8254 25.9487C33.5634 25.795 33.2264 25.8829 33.0727 26.1449C32.9191 26.4069 33.0069 26.7439 33.2689 26.8976C33.2711 26.8988 33.2732 26.9 33.2753 26.9013L35.1799 28.0013C35.442 28.1549 35.779 28.0671 35.9326 27.8051C36.0863 27.543 35.9984 27.206 35.7364 27.0524Z" fill="#B6211A"/>
<path d="M37.1504 20.6494H34.9504C34.6467 20.6494 34.4004 20.8957 34.4004 21.1994C34.4004 21.5031 34.6467 21.7494 34.9504 21.7494H37.1504C37.4541 21.7494 37.7004 21.5031 37.7004 21.1994C37.7004 20.8957 37.4541 20.6494 37.1504 20.6494Z" fill="#B6211A"/>
<path d="M33.5511 16.5252C33.6476 16.5252 33.7425 16.4997 33.8261 16.4515L35.7307 15.3515C35.9948 15.2013 36.0871 14.8655 35.937 14.6015C35.7868 14.3374 35.4511 14.2451 35.187 14.3952C35.1849 14.3964 35.1828 14.3976 35.1807 14.3989L33.276 15.4989C33.013 15.6507 32.9229 15.9871 33.0747 16.2502C33.1731 16.4203 33.3546 16.5252 33.5511 16.5252Z" fill="#B6211A"/>
<path d="M29.4495 12.6259C29.4497 12.626 29.4499 12.6261 29.4501 12.6262C29.7132 12.7779 30.0496 12.6877 30.2013 12.4245L30.2014 12.4243L31.3014 10.5197C31.455 10.2577 31.3672 9.92071 31.1052 9.76705C30.8432 9.6134 30.5061 9.70126 30.3525 9.96326C30.3513 9.96539 30.35 9.96752 30.3488 9.96966L29.2488 11.8743C29.0967 12.1373 29.1866 12.4737 29.4495 12.6259Z" fill="#B6211A"/>
<path d="M25.6007 29.9999C25.9045 29.9999 26.1507 29.7536 26.1507 29.4499V23.4H27.2507C28.4657 23.4 29.4507 22.415 29.4507 21.2C29.4507 19.985 28.4657 19 27.2507 19C26.0357 19 25.0507 19.985 25.0507 21.2V22.3H23.9507V21.2C23.9507 19.985 22.9658 19 21.7508 19C20.5358 19 19.5508 19.985 19.5508 21.2C19.5508 22.415 20.5358 23.4 21.7508 23.4H22.8507V29.4499C22.8507 29.7536 23.097 29.9999 23.4007 29.9999C23.7045 29.9999 23.9507 29.7536 23.9507 29.4499V23.4H25.0507V29.4499C25.0507 29.7536 25.2969 29.9999 25.6007 29.9999ZM26.1507 21.2C26.1507 20.5924 26.6432 20.1 27.2507 20.1C27.8582 20.1 28.3507 20.5924 28.3507 21.2C28.3507 21.8075 27.8582 22.3 27.2507 22.3H26.1507V21.2ZM22.8507 22.3H21.7508C21.1432 22.3 20.6508 21.8075 20.6508 21.2C20.6508 20.5924 21.1432 20.1 21.7508 20.1C22.3583 20.1 22.8507 20.5924 22.8507 21.2V22.3Z" fill="#B6211A"/>
<path d="M24.9273 12.4107C20.0728 12.1775 15.9484 15.9237 15.7152 20.7782C15.5817 23.5579 16.7708 26.2369 18.9219 28.0025C19.3096 28.3062 19.5402 28.768 19.55 29.2603V30.5501C19.5529 31.2468 19.9931 31.8666 20.65 32.0989V32.75C20.6514 33.1573 20.8043 33.5494 21.079 33.85C20.507 34.4718 20.507 35.4282 21.079 36.05C20.4675 36.7203 20.5152 37.7594 21.1856 38.3709C21.49 38.6486 21.8878 38.8018 22.3 38.8C22.596 38.8078 22.8423 38.574 22.85 38.278C22.8531 38.1625 22.8187 38.049 22.7521 37.9546C22.7347 37.921 22.7141 37.8891 22.6905 37.8595C22.6452 37.8181 22.5936 37.7843 22.5376 37.7594C22.5216 37.7511 22.5057 37.7445 22.4892 37.7379C22.4335 37.7177 22.3751 37.706 22.3159 37.7033C22.3104 37.7033 22.3055 37.7 22.3 37.7C21.9962 37.7 21.75 37.4537 21.75 37.15C21.75 36.8463 21.9962 36.6 22.3 36.6H24.5C24.8037 36.6 25.05 36.3537 25.05 36.05C25.05 35.7463 24.8037 35.5 24.5 35.5H22.3C21.9962 35.5 21.75 35.2538 21.75 34.95C21.75 34.6463 21.9962 34.4 22.3 34.4H24.5C24.8037 34.4 25.05 34.1538 25.05 33.85C25.05 33.5463 24.8037 33.3 24.5 33.3H22.3C21.9962 33.3 21.75 33.0538 21.75 32.75V32.2001H24.5C24.8037 32.2001 25.05 31.9538 25.05 31.6501C25.05 31.3463 24.8037 31.1001 24.5 31.1001H21.2C20.8963 31.1001 20.65 30.8538 20.65 30.5501V29.2603C20.641 28.438 20.2623 27.6633 19.6188 27.1511C16.3334 24.451 15.8589 19.5989 18.559 16.3135C20.1035 14.4341 22.4452 13.3952 24.8751 13.5113C28.9386 13.753 32.1306 17.0833 32.1999 21.1534C32.2196 23.4945 31.167 25.7158 29.3427 27.183C28.704 27.7091 28.3388 28.4967 28.3499 29.3241V30.5501C28.3499 30.8538 28.1037 31.1001 27.7999 31.1001H26.1499C25.8462 31.1001 25.5999 31.3463 25.5999 31.6501C25.5999 31.9538 25.8462 32.2001 26.1499 32.2001H27.2499V32.75C27.2499 33.0538 27.0037 33.3 26.6999 33.3H26.1499C25.8462 33.3 25.5999 33.5463 25.5999 33.85C25.5999 34.1538 25.8462 34.4 26.1499 34.4H26.6999C27.0037 34.4 27.2499 34.6463 27.2499 34.95C27.2499 35.2538 27.0037 35.5 26.6999 35.5H26.1499C25.8462 35.5 25.5999 35.7463 25.5999 36.05C25.5999 36.3537 25.8462 36.6 26.1499 36.6H26.6999C27.0037 36.6 27.2499 36.8463 27.2499 37.15C27.2499 37.4537 27.0037 37.7 26.6999 37.7H23.95C23.6462 37.7 23.4 37.9463 23.4 38.25C23.4 38.5537 23.6462 38.8 23.95 38.8H26.0559C25.7522 39.6591 24.8095 40.1095 23.9504 39.8058C23.6873 39.7128 23.4522 39.5546 23.2669 39.3461C23.0649 39.1193 22.7172 39.099 22.4903 39.301C22.2634 39.503 22.2432 39.8507 22.4452 40.0776C23.4511 41.2111 25.1853 41.3146 26.3188 40.3088C26.787 39.8933 27.099 39.3303 27.2032 38.7131C28.0645 38.4439 28.5445 37.5274 28.2754 36.666C28.2039 36.4371 28.0828 36.2268 27.9209 36.05C28.4929 35.4282 28.4929 34.4718 27.9209 33.85C28.1956 33.5494 28.3485 33.1573 28.3499 32.75V32.0989C29.0068 31.8666 29.447 31.2468 29.4499 30.5501V29.3241C29.4425 28.83 29.6566 28.3585 30.0335 28.0388C32.1196 26.3617 33.3231 23.8218 33.2999 21.1452C33.2204 16.493 29.5719 12.6869 24.9273 12.4107Z" fill="#B6211A"/>
</g>
<defs>
<clipPath id="clip0_4014_1032">
<rect width="33" height="33" fill="white" transform="translate(8 8)"/>
</clipPath>
</defs>
</svg>
